<?xml version="1.0" standalone="no"?>
<!DOCTYPE svg PUBLIC "-//W3C//DTD SVG 20010904//EN"
 "http://www.w3.org/TR/2001/REC-SVG-20010904/DTD/svg10.dtd">
<svg version="1.0" xmlns="http://www.w3.org/2000/svg"
 width="400.000000pt" height="400.000000pt" viewBox="0 0 400.000000 400.000000"
 preserveAspectRatio="xMidYMid meet">
<metadata>
Created by potrace 1.14, written by Peter Selinger 2001-2017
</metadata>
<g transform="translate(0.000000,400.000000) scale(0.100000,-0.100000)"
fill="#000000" stroke="none">
<path d="M0 2000 l0 -2000 2000 0 2000 0 0 2000 0 2000 -2000 0 -2000 0 0
-2000z m2109 893 c180 -181 338 -337 350 -347 l22 -20 139 139 140 140 230
-230 230 -230 -2 -478 -3 -478 -200 0 -200 -1 -3 399 -2 398 -165 165 -165
165 -70 -70 -70 -70 135 -135 135 -136 1 -274 c0 -151 0 -281 -1 -287 0 -7
-124 111 -274 262 -151 151 -278 275 -283 275 -10 0 -133 -122 -133 -133 0 -5
124 -132 275 -283 165 -165 268 -274 257 -274 -9 -1 -138 -1 -287 -1 l-269 1
-136 135 -135 135 -70 -70 -70 -70 165 -165 165 -165 700 0 700 0 197 -197
c109 -109 198 -201 198 -205 0 -5 -440 -8 -977 -8 l-978 0 -222 223 c-122 122
-226 226 -230 230 -4 4 56 71 132 147 l140 140 -348 348 -347 347 0 198 0 197
205 0 205 0 0 -113 0 -112 145 -145 145 -145 212 213 213 212 -145 145 -145
145 -415 0 -415 0 -197 197 c-109 109 -198 201 -198 205 0 5 313 8 696 8 l695
0 328 -327z"/>
</g>
</svg>
